<?xml version="1.0" standalone="no"?>
<!DOCTYPE svg PUBLIC "-//W3C//DTD SVG 1.1//EN" "http://www.w3.org/Graphics/SVG/1.1/DTD/svg11.dtd">
<svg width="800" height="600" version="1.1" xmlns="http://www.w3.org/2000/svg">
<rect width="800" height="600" x="0" y="0" style="fill:rgb(238,238,238);stroke:none"/>
<rect width="800" height="600" x="0" y="0" style="fill:rgb(255,255,255);stroke:none"/>
<text x="2" y="566" fill="rgb(0,0,0)" font-family="Arial" font-size="12">0</text>
<text x="2" y="494" fill="rgb(0,0,0)" font-family="Arial" font-size="12">1000000</text>
<text x="2" y="421" fill="rgb(0,0,0)" font-family="Arial" font-size="12">2000000</text>
<text x="2" y="348" fill="rgb(0,0,0)" font-family="Arial" font-size="12">3000000</text>
<text x="2" y="275" fill="rgb(0,0,0)" font-family="Arial" font-size="12">4000000</text>
<text x="2" y="202" fill="rgb(0,0,0)" font-family="Arial" font-size="12">5000000</text>
<text x="2" y="129" fill="rgb(0,0,0)" font-family="Arial" font-size="12">6000000</text>
<text x="2" y="57" fill="rgb(0,0,0)" font-family="Arial" font-size="12">7000000</text>
<text x="286" y="30" fill="rgb(0,0,0)" font-family="Arial" font-size="12">Quality score distribution over all sequences</text>
<line x1="61" y1="560" x2="790" y2="560" stroke="rgb(0,0,0)" stroke-width="1"/>
<line x1="61" y1="560" x2="61" y2="40" stroke="rgb(0,0,0)" stroke-width="1"/>
<text x="281" y="595" fill="rgb(0,0,0)" font-family="Arial" font-size="12">Mean Sequence Quality (Phred Score)</text>
<text x="67" y="575" fill="rgb(0,0,0)" font-family="Arial" font-size="12">16</text>
<rect width="29" height="520" x="90" y="40" style="fill:rgb(230,230,230);stroke:none"/>
<text x="96" y="575" fill="rgb(0,0,0)" font-family="Arial" font-size="12">17</text>
<text x="125" y="575" fill="rgb(0,0,0)" font-family="Arial" font-size="12">18</text>
<rect width="29" height="520" x="148" y="40" style="fill:rgb(230,230,230);stroke:none"/>
<text x="154" y="575" fill="rgb(0,0,0)" font-family="Arial" font-size="12">19</text>
<text x="183" y="575" fill="rgb(0,0,0)" font-family="Arial" font-size="12">20</text>
<rect width="29" height="520" x="206" y="40" style="fill:rgb(230,230,230);stroke:none"/>
<text x="212" y="575" fill="rgb(0,0,0)" font-family="Arial" font-size="12">21</text>
<text x="241" y="575" fill="rgb(0,0,0)" font-family="Arial" font-size="12">22</text>
<rect width="29" height="520" x="264" y="40" style="fill:rgb(230,230,230);stroke:none"/>
<text x="270" y="575" fill="rgb(0,0,0)" font-family="Arial" font-size="12">23</text>
<text x="299" y="575" fill="rgb(0,0,0)" font-family="Arial" font-size="12">24</text>
<rect width="29" height="520" x="322" y="40" style="fill:rgb(230,230,230);stroke:none"/>
<text x="328" y="575" fill="rgb(0,0,0)" font-family="Arial" font-size="12">25</text>
<text x="357" y="575" fill="rgb(0,0,0)" font-family="Arial" font-size="12">26</text>
<rect width="29" height="520" x="380" y="40" style="fill:rgb(230,230,230);stroke:none"/>
<text x="386" y="575" fill="rgb(0,0,0)" font-family="Arial" font-size="12">27</text>
<text x="415" y="575" fill="rgb(0,0,0)" font-family="Arial" font-size="12">28</text>
<rect width="29" height="520" x="438" y="40" style="fill:rgb(230,230,230);stroke:none"/>
<text x="444" y="575" fill="rgb(0,0,0)" font-family="Arial" font-size="12">29</text>
<text x="473" y="575" fill="rgb(0,0,0)" font-family="Arial" font-size="12">30</text>
<rect width="29" height="520" x="496" y="40" style="fill:rgb(230,230,230);stroke:none"/>
<text x="502" y="575" fill="rgb(0,0,0)" font-family="Arial" font-size="12">31</text>
<text x="531" y="575" fill="rgb(0,0,0)" font-family="Arial" font-size="12">32</text>
<rect width="29" height="520" x="554" y="40" style="fill:rgb(230,230,230);stroke:none"/>
<text x="560" y="575" fill="rgb(0,0,0)" font-family="Arial" font-size="12">33</text>
<text x="589" y="575" fill="rgb(0,0,0)" font-family="Arial" font-size="12">34</text>
<rect width="29" height="520" x="612" y="40" style="fill:rgb(230,230,230);stroke:none"/>
<text x="618" y="575" fill="rgb(0,0,0)" font-family="Arial" font-size="12">35</text>
<text x="647" y="575" fill="rgb(0,0,0)" font-family="Arial" font-size="12">36</text>
<rect width="29" height="520" x="670" y="40" style="fill:rgb(230,230,230);stroke:none"/>
<text x="676" y="575" fill="rgb(0,0,0)" font-family="Arial" font-size="12">37</text>
<text x="705" y="575" fill="rgb(0,0,0)" font-family="Arial" font-size="12">38</text>
<rect width="29" height="520" x="728" y="40" style="fill:rgb(230,230,230);stroke:none"/>
<text x="734" y="575" fill="rgb(0,0,0)" font-family="Arial" font-size="12">39</text>
<text x="763" y="575" fill="rgb(0,0,0)" font-family="Arial" font-size="12">40</text>
<line x1="61" y1="560" x2="790" y2="560" stroke="rgb(180,180,180)" stroke-width="1"/>
<line x1="61" y1="488" x2="790" y2="488" stroke="rgb(180,180,180)" stroke-width="1"/>
<line x1="61" y1="415" x2="790" y2="415" stroke="rgb(180,180,180)" stroke-width="1"/>
<line x1="61" y1="342" x2="790" y2="342" stroke="rgb(180,180,180)" stroke-width="1"/>
<line x1="61" y1="269" x2="790" y2="269" stroke="rgb(180,180,180)" stroke-width="1"/>
<line x1="61" y1="196" x2="790" y2="196" stroke="rgb(180,180,180)" stroke-width="1"/>
<line x1="61" y1="123" x2="790" y2="123" stroke="rgb(180,180,180)" stroke-width="1"/>
<line x1="61" y1="51" x2="790" y2="51" stroke="rgb(180,180,180)" stroke-width="1"/>
<line x1="75" y1="560" x2="104" y2="560" stroke="rgb(136,34,85)" stroke-width="1"/>
<line x1="104" y1="560" x2="133" y2="560" stroke="rgb(136,34,85)" stroke-width="1"/>
<line x1="133" y1="560" x2="162" y2="560" stroke="rgb(136,34,85)" stroke-width="1"/>
<line x1="162" y1="560" x2="191" y2="560" stroke="rgb(136,34,85)" stroke-width="1"/>
<line x1="191" y1="560" x2="220" y2="559" stroke="rgb(136,34,85)" stroke-width="1"/>
<line x1="220" y1="559" x2="249" y2="559" stroke="rgb(136,34,85)" stroke-width="1"/>
<line x1="249" y1="559" x2="278" y2="559" stroke="rgb(136,34,85)" stroke-width="1"/>
<line x1="278" y1="559" x2="307" y2="559" stroke="rgb(136,34,85)" stroke-width="1"/>
<line x1="307" y1="559" x2="336" y2="559" stroke="rgb(136,34,85)" stroke-width="1"/>
<line x1="336" y1="559" x2="365" y2="559" stroke="rgb(136,34,85)" stroke-width="1"/>
<line x1="365" y1="559" x2="394" y2="559" stroke="rgb(136,34,85)" stroke-width="1"/>
<line x1="394" y1="559" x2="423" y2="558" stroke="rgb(136,34,85)" stroke-width="1"/>
<line x1="423" y1="558" x2="452" y2="558" stroke="rgb(136,34,85)" stroke-width="1"/>
<line x1="452" y1="558" x2="481" y2="558" stroke="rgb(136,34,85)" stroke-width="1"/>
<line x1="481" y1="558" x2="510" y2="557" stroke="rgb(136,34,85)" stroke-width="1"/>
<line x1="510" y1="557" x2="539" y2="556" stroke="rgb(136,34,85)" stroke-width="1"/>
<line x1="539" y1="556" x2="568" y2="555" stroke="rgb(136,34,85)" stroke-width="1"/>
<line x1="568" y1="555" x2="597" y2="553" stroke="rgb(136,34,85)" stroke-width="1"/>
<line x1="597" y1="553" x2="626" y2="550" stroke="rgb(136,34,85)" stroke-width="1"/>
<line x1="626" y1="550" x2="655" y2="544" stroke="rgb(136,34,85)" stroke-width="1"/>
<line x1="655" y1="544" x2="684" y2="531" stroke="rgb(136,34,85)" stroke-width="1"/>
<line x1="684" y1="531" x2="713" y2="490" stroke="rgb(136,34,85)" stroke-width="1"/>
<line x1="713" y1="490" x2="742" y2="40" stroke="rgb(136,34,85)" stroke-width="1"/>
<line x1="742" y1="40" x2="771" y2="262" stroke="rgb(136,34,85)" stroke-width="1"/>
<rect width="169" height="23" x="621" y="40" style="fill:rgb(255,255,255);stroke:none"/>
<rect width="169" height="23" x="621" y="40" rx="0" ry="0" style="fill:none;stroke-width:1;stroke:rgb(192,192,192)"/>
<text x="624" y="55" fill="rgb(136,34,85)" font-family="Arial" font-size="12" font-weight="bold">Average Quality per read</text>
</svg>
