<?xml version="1.0" standalone="no"?>
<!DOCTYPE svg PUBLIC "-//W3C//DTD SVG 1.1//EN" "http://www.w3.org/Graphics/SVG/1.1/DTD/svg11.dtd">
<svg width="800" height="600" version="1.1" xmlns="http://www.w3.org/2000/svg">
<rect width="800" height="600" x="0" y="0" style="fill:rgb(238,238,238);stroke:none"/>
<rect width="800" height="600" x="0" y="0" style="fill:rgb(255,255,255);stroke:none"/>
<text x="2" y="566" fill="rgb(0,0,0)" font-family="Arial" font-size="12">0</text>
<text x="2" y="510" fill="rgb(0,0,0)" font-family="Arial" font-size="12">50000</text>
<text x="2" y="453" fill="rgb(0,0,0)" font-family="Arial" font-size="12">100000</text>
<text x="2" y="396" fill="rgb(0,0,0)" font-family="Arial" font-size="12">150000</text>
<text x="2" y="339" fill="rgb(0,0,0)" font-family="Arial" font-size="12">200000</text>
<text x="2" y="282" fill="rgb(0,0,0)" font-family="Arial" font-size="12">250000</text>
<text x="2" y="225" fill="rgb(0,0,0)" font-family="Arial" font-size="12">300000</text>
<text x="2" y="168" fill="rgb(0,0,0)" font-family="Arial" font-size="12">350000</text>
<text x="2" y="111" fill="rgb(0,0,0)" font-family="Arial" font-size="12">400000</text>
<text x="2" y="54" fill="rgb(0,0,0)" font-family="Arial" font-size="12">450000</text>
<text x="314" y="30" fill="rgb(0,0,0)" font-family="Arial" font-size="12">GC distribution over all sequences</text>
<line x1="53" y1="560" x2="790" y2="560" stroke="rgb(0,0,0)" stroke-width="1"/>
<line x1="53" y1="560" x2="53" y2="40" stroke="rgb(0,0,0)" stroke-width="1"/>
<text x="334" y="595" fill="rgb(0,0,0)" font-family="Arial" font-size="12">Mean GC content (%)</text>
<text x="52" y="575" fill="rgb(0,0,0)" font-family="Arial" font-size="12">0</text>
<rect width="7" height="520" x="60" y="40" style="fill:rgb(230,230,230);stroke:none"/>
<text x="66" y="575" fill="rgb(0,0,0)" font-family="Arial" font-size="12">2</text>
<rect width="7" height="520" x="74" y="40" style="fill:rgb(230,230,230);stroke:none"/>
<text x="80" y="575" fill="rgb(0,0,0)" font-family="Arial" font-size="12">4</text>
<rect width="7" height="520" x="88" y="40" style="fill:rgb(230,230,230);stroke:none"/>
<text x="94" y="575" fill="rgb(0,0,0)" font-family="Arial" font-size="12">6</text>
<rect width="7" height="520" x="102" y="40" style="fill:rgb(230,230,230);stroke:none"/>
<text x="108" y="575" fill="rgb(0,0,0)" font-family="Arial" font-size="12">8</text>
<rect width="7" height="520" x="116" y="40" style="fill:rgb(230,230,230);stroke:none"/>
<rect width="7" height="520" x="130" y="40" style="fill:rgb(230,230,230);stroke:none"/>
<text x="125" y="575" fill="rgb(0,0,0)" font-family="Arial" font-size="12">11</text>
<rect width="7" height="520" x="144" y="40" style="fill:rgb(230,230,230);stroke:none"/>
<rect width="7" height="520" x="158" y="40" style="fill:rgb(230,230,230);stroke:none"/>
<text x="153" y="575" fill="rgb(0,0,0)" font-family="Arial" font-size="12">15</text>
<rect width="7" height="520" x="172" y="40" style="fill:rgb(230,230,230);stroke:none"/>
<rect width="7" height="520" x="186" y="40" style="fill:rgb(230,230,230);stroke:none"/>
<text x="181" y="575" fill="rgb(0,0,0)" font-family="Arial" font-size="12">19</text>
<rect width="7" height="520" x="200" y="40" style="fill:rgb(230,230,230);stroke:none"/>
<rect width="7" height="520" x="214" y="40" style="fill:rgb(230,230,230);stroke:none"/>
<text x="209" y="575" fill="rgb(0,0,0)" font-family="Arial" font-size="12">23</text>
<rect width="7" height="520" x="228" y="40" style="fill:rgb(230,230,230);stroke:none"/>
<rect width="7" height="520" x="242" y="40" style="fill:rgb(230,230,230);stroke:none"/>
<text x="237" y="575" fill="rgb(0,0,0)" font-family="Arial" font-size="12">27</text>
<rect width="7" height="520" x="256" y="40" style="fill:rgb(230,230,230);stroke:none"/>
<rect width="7" height="520" x="270" y="40" style="fill:rgb(230,230,230);stroke:none"/>
<text x="265" y="575" fill="rgb(0,0,0)" font-family="Arial" font-size="12">31</text>
<rect width="7" height="520" x="284" y="40" style="fill:rgb(230,230,230);stroke:none"/>
<rect width="7" height="520" x="298" y="40" style="fill:rgb(230,230,230);stroke:none"/>
<text x="293" y="575" fill="rgb(0,0,0)" font-family="Arial" font-size="12">35</text>
<rect width="7" height="520" x="312" y="40" style="fill:rgb(230,230,230);stroke:none"/>
<rect width="7" height="520" x="326" y="40" style="fill:rgb(230,230,230);stroke:none"/>
<text x="321" y="575" fill="rgb(0,0,0)" font-family="Arial" font-size="12">39</text>
<rect width="7" height="520" x="340" y="40" style="fill:rgb(230,230,230);stroke:none"/>
<rect width="7" height="520" x="354" y="40" style="fill:rgb(230,230,230);stroke:none"/>
<text x="349" y="575" fill="rgb(0,0,0)" font-family="Arial" font-size="12">43</text>
<rect width="7" height="520" x="368" y="40" style="fill:rgb(230,230,230);stroke:none"/>
<rect width="7" height="520" x="382" y="40" style="fill:rgb(230,230,230);stroke:none"/>
<text x="377" y="575" fill="rgb(0,0,0)" font-family="Arial" font-size="12">47</text>
<rect width="7" height="520" x="396" y="40" style="fill:rgb(230,230,230);stroke:none"/>
<rect width="7" height="520" x="410" y="40" style="fill:rgb(230,230,230);stroke:none"/>
<text x="405" y="575" fill="rgb(0,0,0)" font-family="Arial" font-size="12">51</text>
<rect width="7" height="520" x="424" y="40" style="fill:rgb(230,230,230);stroke:none"/>
<rect width="7" height="520" x="438" y="40" style="fill:rgb(230,230,230);stroke:none"/>
<text x="433" y="575" fill="rgb(0,0,0)" font-family="Arial" font-size="12">55</text>
<rect width="7" height="520" x="452" y="40" style="fill:rgb(230,230,230);stroke:none"/>
<rect width="7" height="520" x="466" y="40" style="fill:rgb(230,230,230);stroke:none"/>
<text x="461" y="575" fill="rgb(0,0,0)" font-family="Arial" font-size="12">59</text>
<rect width="7" height="520" x="480" y="40" style="fill:rgb(230,230,230);stroke:none"/>
<rect width="7" height="520" x="494" y="40" style="fill:rgb(230,230,230);stroke:none"/>
<text x="489" y="575" fill="rgb(0,0,0)" font-family="Arial" font-size="12">63</text>
<rect width="7" height="520" x="508" y="40" style="fill:rgb(230,230,230);stroke:none"/>
<rect width="7" height="520" x="522" y="40" style="fill:rgb(230,230,230);stroke:none"/>
<text x="517" y="575" fill="rgb(0,0,0)" font-family="Arial" font-size="12">67</text>
<rect width="7" height="520" x="536" y="40" style="fill:rgb(230,230,230);stroke:none"/>
<rect width="7" height="520" x="550" y="40" style="fill:rgb(230,230,230);stroke:none"/>
<text x="545" y="575" fill="rgb(0,0,0)" font-family="Arial" font-size="12">71</text>
<rect width="7" height="520" x="564" y="40" style="fill:rgb(230,230,230);stroke:none"/>
<rect width="7" height="520" x="578" y="40" style="fill:rgb(230,230,230);stroke:none"/>
<text x="573" y="575" fill="rgb(0,0,0)" font-family="Arial" font-size="12">75</text>
<rect width="7" height="520" x="592" y="40" style="fill:rgb(230,230,230);stroke:none"/>
<rect width="7" height="520" x="606" y="40" style="fill:rgb(230,230,230);stroke:none"/>
<text x="601" y="575" fill="rgb(0,0,0)" font-family="Arial" font-size="12">79</text>
<rect width="7" height="520" x="620" y="40" style="fill:rgb(230,230,230);stroke:none"/>
<rect width="7" height="520" x="634" y="40" style="fill:rgb(230,230,230);stroke:none"/>
<text x="629" y="575" fill="rgb(0,0,0)" font-family="Arial" font-size="12">83</text>
<rect width="7" height="520" x="648" y="40" style="fill:rgb(230,230,230);stroke:none"/>
<rect width="7" height="520" x="662" y="40" style="fill:rgb(230,230,230);stroke:none"/>
<text x="657" y="575" fill="rgb(0,0,0)" font-family="Arial" font-size="12">87</text>
<rect width="7" height="520" x="676" y="40" style="fill:rgb(230,230,230);stroke:none"/>
<rect width="7" height="520" x="690" y="40" style="fill:rgb(230,230,230);stroke:none"/>
<text x="685" y="575" fill="rgb(0,0,0)" font-family="Arial" font-size="12">91</text>
<rect width="7" height="520" x="704" y="40" style="fill:rgb(230,230,230);stroke:none"/>
<rect width="7" height="520" x="718" y="40" style="fill:rgb(230,230,230);stroke:none"/>
<text x="713" y="575" fill="rgb(0,0,0)" font-family="Arial" font-size="12">95</text>
<rect width="7" height="520" x="732" y="40" style="fill:rgb(230,230,230);stroke:none"/>
<rect width="7" height="520" x="746" y="40" style="fill:rgb(230,230,230);stroke:none"/>
<text x="741" y="575" fill="rgb(0,0,0)" font-family="Arial" font-size="12">99</text>
<line x1="53" y1="560" x2="790" y2="560" stroke="rgb(180,180,180)" stroke-width="1"/>
<line x1="53" y1="504" x2="790" y2="504" stroke="rgb(180,180,180)" stroke-width="1"/>
<line x1="53" y1="447" x2="790" y2="447" stroke="rgb(180,180,180)" stroke-width="1"/>
<line x1="53" y1="390" x2="790" y2="390" stroke="rgb(180,180,180)" stroke-width="1"/>
<line x1="53" y1="333" x2="790" y2="333" stroke="rgb(180,180,180)" stroke-width="1"/>
<line x1="53" y1="276" x2="790" y2="276" stroke="rgb(180,180,180)" stroke-width="1"/>
<line x1="53" y1="219" x2="790" y2="219" stroke="rgb(180,180,180)" stroke-width="1"/>
<line x1="53" y1="162" x2="790" y2="162" stroke="rgb(180,180,180)" stroke-width="1"/>
<line x1="53" y1="105" x2="790" y2="105" stroke="rgb(180,180,180)" stroke-width="1"/>
<line x1="53" y1="48" x2="790" y2="48" stroke="rgb(180,180,180)" stroke-width="1"/>
<line x1="56" y1="560" x2="63" y2="560" stroke="rgb(136,34,85)" stroke-width="1"/>
<line x1="63" y1="560" x2="70" y2="560" stroke="rgb(136,34,85)" stroke-width="1"/>
<line x1="70" y1="560" x2="77" y2="560" stroke="rgb(136,34,85)" stroke-width="1"/>
<line x1="77" y1="560" x2="84" y2="560" stroke="rgb(136,34,85)" stroke-width="1"/>
<line x1="84" y1="560" x2="91" y2="560" stroke="rgb(136,34,85)" stroke-width="1"/>
<line x1="91" y1="560" x2="98" y2="560" stroke="rgb(136,34,85)" stroke-width="1"/>
<line x1="98" y1="560" x2="105" y2="560" stroke="rgb(136,34,85)" stroke-width="1"/>
<line x1="105" y1="560" x2="112" y2="560" stroke="rgb(136,34,85)" stroke-width="1"/>
<line x1="112" y1="560" x2="119" y2="560" stroke="rgb(136,34,85)" stroke-width="1"/>
<line x1="119" y1="560" x2="126" y2="560" stroke="rgb(136,34,85)" stroke-width="1"/>
<line x1="126" y1="560" x2="133" y2="560" stroke="rgb(136,34,85)" stroke-width="1"/>
<line x1="133" y1="560" x2="140" y2="560" stroke="rgb(136,34,85)" stroke-width="1"/>
<line x1="140" y1="560" x2="147" y2="560" stroke="rgb(136,34,85)" stroke-width="1"/>
<line x1="147" y1="560" x2="154" y2="560" stroke="rgb(136,34,85)" stroke-width="1"/>
<line x1="154" y1="560" x2="161" y2="560" stroke="rgb(136,34,85)" stroke-width="1"/>
<line x1="161" y1="560" x2="168" y2="560" stroke="rgb(136,34,85)" stroke-width="1"/>
<line x1="168" y1="560" x2="175" y2="560" stroke="rgb(136,34,85)" stroke-width="1"/>
<line x1="175" y1="560" x2="182" y2="560" stroke="rgb(136,34,85)" stroke-width="1"/>
<line x1="182" y1="560" x2="189" y2="559" stroke="rgb(136,34,85)" stroke-width="1"/>
<line x1="189" y1="559" x2="196" y2="558" stroke="rgb(136,34,85)" stroke-width="1"/>
<line x1="196" y1="558" x2="203" y2="557" stroke="rgb(136,34,85)" stroke-width="1"/>
<line x1="203" y1="557" x2="210" y2="554" stroke="rgb(136,34,85)" stroke-width="1"/>
<line x1="210" y1="554" x2="217" y2="550" stroke="rgb(136,34,85)" stroke-width="1"/>
<line x1="217" y1="550" x2="224" y2="545" stroke="rgb(136,34,85)" stroke-width="1"/>
<line x1="224" y1="545" x2="231" y2="538" stroke="rgb(136,34,85)" stroke-width="1"/>
<line x1="231" y1="538" x2="238" y2="528" stroke="rgb(136,34,85)" stroke-width="1"/>
<line x1="238" y1="528" x2="245" y2="516" stroke="rgb(136,34,85)" stroke-width="1"/>
<line x1="245" y1="516" x2="252" y2="503" stroke="rgb(136,34,85)" stroke-width="1"/>
<line x1="252" y1="503" x2="259" y2="487" stroke="rgb(136,34,85)" stroke-width="1"/>
<line x1="259" y1="487" x2="266" y2="469" stroke="rgb(136,34,85)" stroke-width="1"/>
<line x1="266" y1="469" x2="273" y2="447" stroke="rgb(136,34,85)" stroke-width="1"/>
<line x1="273" y1="447" x2="280" y2="424" stroke="rgb(136,34,85)" stroke-width="1"/>
<line x1="280" y1="424" x2="287" y2="400" stroke="rgb(136,34,85)" stroke-width="1"/>
<line x1="287" y1="400" x2="294" y2="374" stroke="rgb(136,34,85)" stroke-width="1"/>
<line x1="294" y1="374" x2="301" y2="348" stroke="rgb(136,34,85)" stroke-width="1"/>
<line x1="301" y1="348" x2="308" y2="317" stroke="rgb(136,34,85)" stroke-width="1"/>
<line x1="308" y1="317" x2="315" y2="283" stroke="rgb(136,34,85)" stroke-width="1"/>
<line x1="315" y1="283" x2="322" y2="253" stroke="rgb(136,34,85)" stroke-width="1"/>
<line x1="322" y1="253" x2="329" y2="220" stroke="rgb(136,34,85)" stroke-width="1"/>
<line x1="329" y1="220" x2="336" y2="194" stroke="rgb(136,34,85)" stroke-width="1"/>
<line x1="336" y1="194" x2="343" y2="175" stroke="rgb(136,34,85)" stroke-width="1"/>
<line x1="343" y1="175" x2="350" y2="138" stroke="rgb(136,34,85)" stroke-width="1"/>
<line x1="350" y1="138" x2="357" y2="97" stroke="rgb(136,34,85)" stroke-width="1"/>
<line x1="357" y1="97" x2="364" y2="80" stroke="rgb(136,34,85)" stroke-width="1"/>
<line x1="364" y1="80" x2="371" y2="58" stroke="rgb(136,34,85)" stroke-width="1"/>
<line x1="371" y1="58" x2="378" y2="45" stroke="rgb(136,34,85)" stroke-width="1"/>
<line x1="378" y1="45" x2="385" y2="60" stroke="rgb(136,34,85)" stroke-width="1"/>
<line x1="385" y1="60" x2="392" y2="54" stroke="rgb(136,34,85)" stroke-width="1"/>
<line x1="392" y1="54" x2="399" y2="50" stroke="rgb(136,34,85)" stroke-width="1"/>
<line x1="399" y1="50" x2="406" y2="68" stroke="rgb(136,34,85)" stroke-width="1"/>
<line x1="406" y1="68" x2="413" y2="80" stroke="rgb(136,34,85)" stroke-width="1"/>
<line x1="413" y1="80" x2="420" y2="92" stroke="rgb(136,34,85)" stroke-width="1"/>
<line x1="420" y1="92" x2="427" y2="98" stroke="rgb(136,34,85)" stroke-width="1"/>
<line x1="427" y1="98" x2="434" y2="107" stroke="rgb(136,34,85)" stroke-width="1"/>
<line x1="434" y1="107" x2="441" y2="123" stroke="rgb(136,34,85)" stroke-width="1"/>
<line x1="441" y1="123" x2="448" y2="140" stroke="rgb(136,34,85)" stroke-width="1"/>
<line x1="448" y1="140" x2="455" y2="160" stroke="rgb(136,34,85)" stroke-width="1"/>
<line x1="455" y1="160" x2="462" y2="173" stroke="rgb(136,34,85)" stroke-width="1"/>
<line x1="462" y1="173" x2="469" y2="182" stroke="rgb(136,34,85)" stroke-width="1"/>
<line x1="469" y1="182" x2="476" y2="194" stroke="rgb(136,34,85)" stroke-width="1"/>
<line x1="476" y1="194" x2="483" y2="210" stroke="rgb(136,34,85)" stroke-width="1"/>
<line x1="483" y1="210" x2="490" y2="230" stroke="rgb(136,34,85)" stroke-width="1"/>
<line x1="490" y1="230" x2="497" y2="256" stroke="rgb(136,34,85)" stroke-width="1"/>
<line x1="497" y1="256" x2="504" y2="282" stroke="rgb(136,34,85)" stroke-width="1"/>
<line x1="504" y1="282" x2="511" y2="309" stroke="rgb(136,34,85)" stroke-width="1"/>
<line x1="511" y1="309" x2="518" y2="337" stroke="rgb(136,34,85)" stroke-width="1"/>
<line x1="518" y1="337" x2="525" y2="362" stroke="rgb(136,34,85)" stroke-width="1"/>
<line x1="525" y1="362" x2="532" y2="389" stroke="rgb(136,34,85)" stroke-width="1"/>
<line x1="532" y1="389" x2="539" y2="418" stroke="rgb(136,34,85)" stroke-width="1"/>
<line x1="539" y1="418" x2="546" y2="444" stroke="rgb(136,34,85)" stroke-width="1"/>
<line x1="546" y1="444" x2="553" y2="466" stroke="rgb(136,34,85)" stroke-width="1"/>
<line x1="553" y1="466" x2="560" y2="486" stroke="rgb(136,34,85)" stroke-width="1"/>
<line x1="560" y1="486" x2="567" y2="502" stroke="rgb(136,34,85)" stroke-width="1"/>
<line x1="567" y1="502" x2="574" y2="515" stroke="rgb(136,34,85)" stroke-width="1"/>
<line x1="574" y1="515" x2="581" y2="525" stroke="rgb(136,34,85)" stroke-width="1"/>
<line x1="581" y1="525" x2="588" y2="535" stroke="rgb(136,34,85)" stroke-width="1"/>
<line x1="588" y1="535" x2="595" y2="541" stroke="rgb(136,34,85)" stroke-width="1"/>
<line x1="595" y1="541" x2="602" y2="546" stroke="rgb(136,34,85)" stroke-width="1"/>
<line x1="602" y1="546" x2="609" y2="550" stroke="rgb(136,34,85)" stroke-width="1"/>
<line x1="609" y1="550" x2="616" y2="553" stroke="rgb(136,34,85)" stroke-width="1"/>
<line x1="616" y1="553" x2="623" y2="555" stroke="rgb(136,34,85)" stroke-width="1"/>
<line x1="623" y1="555" x2="630" y2="557" stroke="rgb(136,34,85)" stroke-width="1"/>
<line x1="630" y1="557" x2="637" y2="558" stroke="rgb(136,34,85)" stroke-width="1"/>
<line x1="637" y1="558" x2="644" y2="559" stroke="rgb(136,34,85)" stroke-width="1"/>
<line x1="644" y1="559" x2="651" y2="559" stroke="rgb(136,34,85)" stroke-width="1"/>
<line x1="651" y1="559" x2="658" y2="560" stroke="rgb(136,34,85)" stroke-width="1"/>
<line x1="658" y1="560" x2="665" y2="560" stroke="rgb(136,34,85)" stroke-width="1"/>
<line x1="665" y1="560" x2="672" y2="560" stroke="rgb(136,34,85)" stroke-width="1"/>
<line x1="672" y1="560" x2="679" y2="560" stroke="rgb(136,34,85)" stroke-width="1"/>
<line x1="679" y1="560" x2="686" y2="560" stroke="rgb(136,34,85)" stroke-width="1"/>
<line x1="686" y1="560" x2="693" y2="560" stroke="rgb(136,34,85)" stroke-width="1"/>
<line x1="693" y1="560" x2="700" y2="560" stroke="rgb(136,34,85)" stroke-width="1"/>
<line x1="700" y1="560" x2="707" y2="560" stroke="rgb(136,34,85)" stroke-width="1"/>
<line x1="707" y1="560" x2="714" y2="560" stroke="rgb(136,34,85)" stroke-width="1"/>
<line x1="714" y1="560" x2="721" y2="560" stroke="rgb(136,34,85)" stroke-width="1"/>
<line x1="721" y1="560" x2="728" y2="560" stroke="rgb(136,34,85)" stroke-width="1"/>
<line x1="728" y1="560" x2="735" y2="560" stroke="rgb(136,34,85)" stroke-width="1"/>
<line x1="735" y1="560" x2="742" y2="560" stroke="rgb(136,34,85)" stroke-width="1"/>
<line x1="742" y1="560" x2="749" y2="558" stroke="rgb(136,34,85)" stroke-width="1"/>
<line x1="749" y1="558" x2="756" y2="541" stroke="rgb(136,34,85)" stroke-width="1"/>
<line x1="56" y1="560" x2="63" y2="560" stroke="rgb(51,34,136)" stroke-width="1"/>
<line x1="63" y1="560" x2="70" y2="560" stroke="rgb(51,34,136)" stroke-width="1"/>
<line x1="70" y1="560" x2="77" y2="560" stroke="rgb(51,34,136)" stroke-width="1"/>
<line x1="77" y1="560" x2="84" y2="560" stroke="rgb(51,34,136)" stroke-width="1"/>
<line x1="84" y1="560" x2="91" y2="560" stroke="rgb(51,34,136)" stroke-width="1"/>
<line x1="91" y1="560" x2="98" y2="560" stroke="rgb(51,34,136)" stroke-width="1"/>
<line x1="98" y1="560" x2="105" y2="560" stroke="rgb(51,34,136)" stroke-width="1"/>
<line x1="105" y1="560" x2="112" y2="560" stroke="rgb(51,34,136)" stroke-width="1"/>
<line x1="112" y1="560" x2="119" y2="559" stroke="rgb(51,34,136)" stroke-width="1"/>
<line x1="119" y1="559" x2="126" y2="559" stroke="rgb(51,34,136)" stroke-width="1"/>
<line x1="126" y1="559" x2="133" y2="558" stroke="rgb(51,34,136)" stroke-width="1"/>
<line x1="133" y1="558" x2="140" y2="558" stroke="rgb(51,34,136)" stroke-width="1"/>
<line x1="140" y1="558" x2="147" y2="557" stroke="rgb(51,34,136)" stroke-width="1"/>
<line x1="147" y1="557" x2="154" y2="556" stroke="rgb(51,34,136)" stroke-width="1"/>
<line x1="154" y1="556" x2="161" y2="554" stroke="rgb(51,34,136)" stroke-width="1"/>
<line x1="161" y1="554" x2="168" y2="552" stroke="rgb(51,34,136)" stroke-width="1"/>
<line x1="168" y1="552" x2="175" y2="550" stroke="rgb(51,34,136)" stroke-width="1"/>
<line x1="175" y1="550" x2="182" y2="547" stroke="rgb(51,34,136)" stroke-width="1"/>
<line x1="182" y1="547" x2="189" y2="543" stroke="rgb(51,34,136)" stroke-width="1"/>
<line x1="189" y1="543" x2="196" y2="538" stroke="rgb(51,34,136)" stroke-width="1"/>
<line x1="196" y1="538" x2="203" y2="533" stroke="rgb(51,34,136)" stroke-width="1"/>
<line x1="203" y1="533" x2="210" y2="526" stroke="rgb(51,34,136)" stroke-width="1"/>
<line x1="210" y1="526" x2="217" y2="518" stroke="rgb(51,34,136)" stroke-width="1"/>
<line x1="217" y1="518" x2="224" y2="509" stroke="rgb(51,34,136)" stroke-width="1"/>
<line x1="224" y1="509" x2="231" y2="498" stroke="rgb(51,34,136)" stroke-width="1"/>
<line x1="231" y1="498" x2="238" y2="486" stroke="rgb(51,34,136)" stroke-width="1"/>
<line x1="238" y1="486" x2="245" y2="472" stroke="rgb(51,34,136)" stroke-width="1"/>
<line x1="245" y1="472" x2="252" y2="456" stroke="rgb(51,34,136)" stroke-width="1"/>
<line x1="252" y1="456" x2="259" y2="439" stroke="rgb(51,34,136)" stroke-width="1"/>
<line x1="259" y1="439" x2="266" y2="419" stroke="rgb(51,34,136)" stroke-width="1"/>
<line x1="266" y1="419" x2="273" y2="398" stroke="rgb(51,34,136)" stroke-width="1"/>
<line x1="273" y1="398" x2="280" y2="375" stroke="rgb(51,34,136)" stroke-width="1"/>
<line x1="280" y1="375" x2="287" y2="350" stroke="rgb(51,34,136)" stroke-width="1"/>
<line x1="287" y1="350" x2="294" y2="324" stroke="rgb(51,34,136)" stroke-width="1"/>
<line x1="294" y1="324" x2="301" y2="297" stroke="rgb(51,34,136)" stroke-width="1"/>
<line x1="301" y1="297" x2="308" y2="269" stroke="rgb(51,34,136)" stroke-width="1"/>
<line x1="308" y1="269" x2="315" y2="241" stroke="rgb(51,34,136)" stroke-width="1"/>
<line x1="315" y1="241" x2="322" y2="213" stroke="rgb(51,34,136)" stroke-width="1"/>
<line x1="322" y1="213" x2="329" y2="185" stroke="rgb(51,34,136)" stroke-width="1"/>
<line x1="329" y1="185" x2="336" y2="158" stroke="rgb(51,34,136)" stroke-width="1"/>
<line x1="336" y1="158" x2="343" y2="133" stroke="rgb(51,34,136)" stroke-width="1"/>
<line x1="343" y1="133" x2="350" y2="111" stroke="rgb(51,34,136)" stroke-width="1"/>
<line x1="350" y1="111" x2="357" y2="90" stroke="rgb(51,34,136)" stroke-width="1"/>
<line x1="357" y1="90" x2="364" y2="73" stroke="rgb(51,34,136)" stroke-width="1"/>
<line x1="364" y1="73" x2="371" y2="59" stroke="rgb(51,34,136)" stroke-width="1"/>
<line x1="371" y1="59" x2="378" y2="49" stroke="rgb(51,34,136)" stroke-width="1"/>
<line x1="378" y1="49" x2="385" y2="43" stroke="rgb(51,34,136)" stroke-width="1"/>
<line x1="385" y1="43" x2="392" y2="40" stroke="rgb(51,34,136)" stroke-width="1"/>
<line x1="392" y1="40" x2="399" y2="43" stroke="rgb(51,34,136)" stroke-width="1"/>
<line x1="399" y1="43" x2="406" y2="49" stroke="rgb(51,34,136)" stroke-width="1"/>
<line x1="406" y1="49" x2="413" y2="59" stroke="rgb(51,34,136)" stroke-width="1"/>
<line x1="413" y1="59" x2="420" y2="73" stroke="rgb(51,34,136)" stroke-width="1"/>
<line x1="420" y1="73" x2="427" y2="90" stroke="rgb(51,34,136)" stroke-width="1"/>
<line x1="427" y1="90" x2="434" y2="111" stroke="rgb(51,34,136)" stroke-width="1"/>
<line x1="434" y1="111" x2="441" y2="133" stroke="rgb(51,34,136)" stroke-width="1"/>
<line x1="441" y1="133" x2="448" y2="158" stroke="rgb(51,34,136)" stroke-width="1"/>
<line x1="448" y1="158" x2="455" y2="185" stroke="rgb(51,34,136)" stroke-width="1"/>
<line x1="455" y1="185" x2="462" y2="213" stroke="rgb(51,34,136)" stroke-width="1"/>
<line x1="462" y1="213" x2="469" y2="241" stroke="rgb(51,34,136)" stroke-width="1"/>
<line x1="469" y1="241" x2="476" y2="269" stroke="rgb(51,34,136)" stroke-width="1"/>
<line x1="476" y1="269" x2="483" y2="297" stroke="rgb(51,34,136)" stroke-width="1"/>
<line x1="483" y1="297" x2="490" y2="324" stroke="rgb(51,34,136)" stroke-width="1"/>
<line x1="490" y1="324" x2="497" y2="350" stroke="rgb(51,34,136)" stroke-width="1"/>
<line x1="497" y1="350" x2="504" y2="375" stroke="rgb(51,34,136)" stroke-width="1"/>
<line x1="504" y1="375" x2="511" y2="398" stroke="rgb(51,34,136)" stroke-width="1"/>
<line x1="511" y1="398" x2="518" y2="419" stroke="rgb(51,34,136)" stroke-width="1"/>
<line x1="518" y1="419" x2="525" y2="439" stroke="rgb(51,34,136)" stroke-width="1"/>
<line x1="525" y1="439" x2="532" y2="456" stroke="rgb(51,34,136)" stroke-width="1"/>
<line x1="532" y1="456" x2="539" y2="472" stroke="rgb(51,34,136)" stroke-width="1"/>
<line x1="539" y1="472" x2="546" y2="486" stroke="rgb(51,34,136)" stroke-width="1"/>
<line x1="546" y1="486" x2="553" y2="498" stroke="rgb(51,34,136)" stroke-width="1"/>
<line x1="553" y1="498" x2="560" y2="509" stroke="rgb(51,34,136)" stroke-width="1"/>
<line x1="560" y1="509" x2="567" y2="518" stroke="rgb(51,34,136)" stroke-width="1"/>
<line x1="567" y1="518" x2="574" y2="526" stroke="rgb(51,34,136)" stroke-width="1"/>
<line x1="574" y1="526" x2="581" y2="533" stroke="rgb(51,34,136)" stroke-width="1"/>
<line x1="581" y1="533" x2="588" y2="538" stroke="rgb(51,34,136)" stroke-width="1"/>
<line x1="588" y1="538" x2="595" y2="543" stroke="rgb(51,34,136)" stroke-width="1"/>
<line x1="595" y1="543" x2="602" y2="547" stroke="rgb(51,34,136)" stroke-width="1"/>
<line x1="602" y1="547" x2="609" y2="550" stroke="rgb(51,34,136)" stroke-width="1"/>
<line x1="609" y1="550" x2="616" y2="552" stroke="rgb(51,34,136)" stroke-width="1"/>
<line x1="616" y1="552" x2="623" y2="554" stroke="rgb(51,34,136)" stroke-width="1"/>
<line x1="623" y1="554" x2="630" y2="556" stroke="rgb(51,34,136)" stroke-width="1"/>
<line x1="630" y1="556" x2="637" y2="557" stroke="rgb(51,34,136)" stroke-width="1"/>
<line x1="637" y1="557" x2="644" y2="558" stroke="rgb(51,34,136)" stroke-width="1"/>
<line x1="644" y1="558" x2="651" y2="558" stroke="rgb(51,34,136)" stroke-width="1"/>
<line x1="651" y1="558" x2="658" y2="559" stroke="rgb(51,34,136)" stroke-width="1"/>
<line x1="658" y1="559" x2="665" y2="559" stroke="rgb(51,34,136)" stroke-width="1"/>
<line x1="665" y1="559" x2="672" y2="560" stroke="rgb(51,34,136)" stroke-width="1"/>
<line x1="672" y1="560" x2="679" y2="560" stroke="rgb(51,34,136)" stroke-width="1"/>
<line x1="679" y1="560" x2="686" y2="560" stroke="rgb(51,34,136)" stroke-width="1"/>
<line x1="686" y1="560" x2="693" y2="560" stroke="rgb(51,34,136)" stroke-width="1"/>
<line x1="693" y1="560" x2="700" y2="560" stroke="rgb(51,34,136)" stroke-width="1"/>
<line x1="700" y1="560" x2="707" y2="560" stroke="rgb(51,34,136)" stroke-width="1"/>
<line x1="707" y1="560" x2="714" y2="560" stroke="rgb(51,34,136)" stroke-width="1"/>
<line x1="714" y1="560" x2="721" y2="560" stroke="rgb(51,34,136)" stroke-width="1"/>
<line x1="721" y1="560" x2="728" y2="560" stroke="rgb(51,34,136)" stroke-width="1"/>
<line x1="728" y1="560" x2="735" y2="560" stroke="rgb(51,34,136)" stroke-width="1"/>
<line x1="735" y1="560" x2="742" y2="560" stroke="rgb(51,34,136)" stroke-width="1"/>
<line x1="742" y1="560" x2="749" y2="560" stroke="rgb(51,34,136)" stroke-width="1"/>
<line x1="749" y1="560" x2="756" y2="560" stroke="rgb(51,34,136)" stroke-width="1"/>
<rect width="161" height="43" x="629" y="40" style="fill:rgb(255,255,255);stroke:none"/>
<rect width="161" height="43" x="629" y="40" rx="0" ry="0" style="fill:none;stroke-width:1;stroke:rgb(192,192,192)"/>
<text x="632" y="55" fill="rgb(136,34,85)" font-family="Arial" font-size="12" font-weight="bold">GC count per read</text>
<text x="632" y="75" fill="rgb(51,34,136)" font-family="Arial" font-size="12" font-weight="bold">Theoretical Distribution</text>
</svg>
