<?xml version="1.0" standalone="no"?>
<!DOCTYPE svg PUBLIC "-//W3C//DTD SVG 1.1//EN" "http://www.w3.org/Graphics/SVG/1.1/DTD/svg11.dtd">
<svg width="800" height="600" version="1.1" xmlns="http://www.w3.org/2000/svg">
<rect width="800" height="600" x="0" y="0" style="fill:rgb(238,238,238);stroke:none"/>
<rect width="800" height="600" x="0" y="0" style="fill:rgb(255,255,255);stroke:none"/>
<text x="2" y="566" fill="rgb(0,0,0)" font-family="Arial" font-size="12">0</text>
<text x="2" y="499" fill="rgb(0,0,0)" font-family="Arial" font-size="12">1000000</text>
<text x="2" y="432" fill="rgb(0,0,0)" font-family="Arial" font-size="12">2000000</text>
<text x="2" y="365" fill="rgb(0,0,0)" font-family="Arial" font-size="12">3000000</text>
<text x="2" y="298" fill="rgb(0,0,0)" font-family="Arial" font-size="12">4000000</text>
<text x="2" y="231" fill="rgb(0,0,0)" font-family="Arial" font-size="12">5000000</text>
<text x="2" y="164" fill="rgb(0,0,0)" font-family="Arial" font-size="12">6000000</text>
<text x="2" y="96" fill="rgb(0,0,0)" font-family="Arial" font-size="12">7000000</text>
<text x="286" y="30" fill="rgb(0,0,0)" font-family="Arial" font-size="12">Quality score distribution over all sequences</text>
<line x1="61" y1="560" x2="790" y2="560" stroke="rgb(0,0,0)" stroke-width="1"/>
<line x1="61" y1="560" x2="61" y2="40" stroke="rgb(0,0,0)" stroke-width="1"/>
<text x="281" y="595" fill="rgb(0,0,0)" font-family="Arial" font-size="12">Mean Sequence Quality (Phred Score)</text>
<text x="66" y="575" fill="rgb(0,0,0)" font-family="Arial" font-size="12">13</text>
<rect width="26" height="520" x="87" y="40" style="fill:rgb(230,230,230);stroke:none"/>
<text x="92" y="575" fill="rgb(0,0,0)" font-family="Arial" font-size="12">14</text>
<text x="118" y="575" fill="rgb(0,0,0)" font-family="Arial" font-size="12">15</text>
<rect width="26" height="520" x="139" y="40" style="fill:rgb(230,230,230);stroke:none"/>
<text x="144" y="575" fill="rgb(0,0,0)" font-family="Arial" font-size="12">16</text>
<text x="170" y="575" fill="rgb(0,0,0)" font-family="Arial" font-size="12">17</text>
<rect width="26" height="520" x="191" y="40" style="fill:rgb(230,230,230);stroke:none"/>
<text x="196" y="575" fill="rgb(0,0,0)" font-family="Arial" font-size="12">18</text>
<text x="222" y="575" fill="rgb(0,0,0)" font-family="Arial" font-size="12">19</text>
<rect width="26" height="520" x="243" y="40" style="fill:rgb(230,230,230);stroke:none"/>
<text x="248" y="575" fill="rgb(0,0,0)" font-family="Arial" font-size="12">20</text>
<text x="274" y="575" fill="rgb(0,0,0)" font-family="Arial" font-size="12">21</text>
<rect width="26" height="520" x="295" y="40" style="fill:rgb(230,230,230);stroke:none"/>
<text x="300" y="575" fill="rgb(0,0,0)" font-family="Arial" font-size="12">22</text>
<text x="326" y="575" fill="rgb(0,0,0)" font-family="Arial" font-size="12">23</text>
<rect width="26" height="520" x="347" y="40" style="fill:rgb(230,230,230);stroke:none"/>
<text x="352" y="575" fill="rgb(0,0,0)" font-family="Arial" font-size="12">24</text>
<text x="378" y="575" fill="rgb(0,0,0)" font-family="Arial" font-size="12">25</text>
<rect width="26" height="520" x="399" y="40" style="fill:rgb(230,230,230);stroke:none"/>
<text x="404" y="575" fill="rgb(0,0,0)" font-family="Arial" font-size="12">26</text>
<text x="430" y="575" fill="rgb(0,0,0)" font-family="Arial" font-size="12">27</text>
<rect width="26" height="520" x="451" y="40" style="fill:rgb(230,230,230);stroke:none"/>
<text x="456" y="575" fill="rgb(0,0,0)" font-family="Arial" font-size="12">28</text>
<text x="482" y="575" fill="rgb(0,0,0)" font-family="Arial" font-size="12">29</text>
<rect width="26" height="520" x="503" y="40" style="fill:rgb(230,230,230);stroke:none"/>
<text x="508" y="575" fill="rgb(0,0,0)" font-family="Arial" font-size="12">30</text>
<text x="534" y="575" fill="rgb(0,0,0)" font-family="Arial" font-size="12">31</text>
<rect width="26" height="520" x="555" y="40" style="fill:rgb(230,230,230);stroke:none"/>
<text x="560" y="575" fill="rgb(0,0,0)" font-family="Arial" font-size="12">32</text>
<text x="586" y="575" fill="rgb(0,0,0)" font-family="Arial" font-size="12">33</text>
<rect width="26" height="520" x="607" y="40" style="fill:rgb(230,230,230);stroke:none"/>
<text x="612" y="575" fill="rgb(0,0,0)" font-family="Arial" font-size="12">34</text>
<text x="638" y="575" fill="rgb(0,0,0)" font-family="Arial" font-size="12">35</text>
<rect width="26" height="520" x="659" y="40" style="fill:rgb(230,230,230);stroke:none"/>
<text x="664" y="575" fill="rgb(0,0,0)" font-family="Arial" font-size="12">36</text>
<text x="690" y="575" fill="rgb(0,0,0)" font-family="Arial" font-size="12">37</text>
<rect width="26" height="520" x="711" y="40" style="fill:rgb(230,230,230);stroke:none"/>
<text x="716" y="575" fill="rgb(0,0,0)" font-family="Arial" font-size="12">38</text>
<text x="742" y="575" fill="rgb(0,0,0)" font-family="Arial" font-size="12">39</text>
<rect width="26" height="520" x="763" y="40" style="fill:rgb(230,230,230);stroke:none"/>
<text x="768" y="575" fill="rgb(0,0,0)" font-family="Arial" font-size="12">40</text>
<line x1="61" y1="560" x2="790" y2="560" stroke="rgb(180,180,180)" stroke-width="1"/>
<line x1="61" y1="493" x2="790" y2="493" stroke="rgb(180,180,180)" stroke-width="1"/>
<line x1="61" y1="426" x2="790" y2="426" stroke="rgb(180,180,180)" stroke-width="1"/>
<line x1="61" y1="359" x2="790" y2="359" stroke="rgb(180,180,180)" stroke-width="1"/>
<line x1="61" y1="292" x2="790" y2="292" stroke="rgb(180,180,180)" stroke-width="1"/>
<line x1="61" y1="225" x2="790" y2="225" stroke="rgb(180,180,180)" stroke-width="1"/>
<line x1="61" y1="158" x2="790" y2="158" stroke="rgb(180,180,180)" stroke-width="1"/>
<line x1="61" y1="90" x2="790" y2="90" stroke="rgb(180,180,180)" stroke-width="1"/>
<line x1="74" y1="560" x2="100" y2="560" stroke="rgb(136,34,85)" stroke-width="1"/>
<line x1="100" y1="560" x2="126" y2="560" stroke="rgb(136,34,85)" stroke-width="1"/>
<line x1="126" y1="560" x2="152" y2="560" stroke="rgb(136,34,85)" stroke-width="1"/>
<line x1="152" y1="560" x2="178" y2="560" stroke="rgb(136,34,85)" stroke-width="1"/>
<line x1="178" y1="560" x2="204" y2="559" stroke="rgb(136,34,85)" stroke-width="1"/>
<line x1="204" y1="559" x2="230" y2="559" stroke="rgb(136,34,85)" stroke-width="1"/>
<line x1="230" y1="559" x2="256" y2="558" stroke="rgb(136,34,85)" stroke-width="1"/>
<line x1="256" y1="558" x2="282" y2="558" stroke="rgb(136,34,85)" stroke-width="1"/>
<line x1="282" y1="558" x2="308" y2="559" stroke="rgb(136,34,85)" stroke-width="1"/>
<line x1="308" y1="559" x2="334" y2="559" stroke="rgb(136,34,85)" stroke-width="1"/>
<line x1="334" y1="559" x2="360" y2="558" stroke="rgb(136,34,85)" stroke-width="1"/>
<line x1="360" y1="558" x2="386" y2="558" stroke="rgb(136,34,85)" stroke-width="1"/>
<line x1="386" y1="558" x2="412" y2="558" stroke="rgb(136,34,85)" stroke-width="1"/>
<line x1="412" y1="558" x2="438" y2="558" stroke="rgb(136,34,85)" stroke-width="1"/>
<line x1="438" y1="558" x2="464" y2="558" stroke="rgb(136,34,85)" stroke-width="1"/>
<line x1="464" y1="558" x2="490" y2="558" stroke="rgb(136,34,85)" stroke-width="1"/>
<line x1="490" y1="558" x2="516" y2="557" stroke="rgb(136,34,85)" stroke-width="1"/>
<line x1="516" y1="557" x2="542" y2="557" stroke="rgb(136,34,85)" stroke-width="1"/>
<line x1="542" y1="557" x2="568" y2="556" stroke="rgb(136,34,85)" stroke-width="1"/>
<line x1="568" y1="556" x2="594" y2="555" stroke="rgb(136,34,85)" stroke-width="1"/>
<line x1="594" y1="555" x2="620" y2="553" stroke="rgb(136,34,85)" stroke-width="1"/>
<line x1="620" y1="553" x2="646" y2="551" stroke="rgb(136,34,85)" stroke-width="1"/>
<line x1="646" y1="551" x2="672" y2="544" stroke="rgb(136,34,85)" stroke-width="1"/>
<line x1="672" y1="544" x2="698" y2="532" stroke="rgb(136,34,85)" stroke-width="1"/>
<line x1="698" y1="532" x2="724" y2="490" stroke="rgb(136,34,85)" stroke-width="1"/>
<line x1="724" y1="490" x2="750" y2="40" stroke="rgb(136,34,85)" stroke-width="1"/>
<line x1="750" y1="40" x2="776" y2="199" stroke="rgb(136,34,85)" stroke-width="1"/>
<rect width="169" height="23" x="621" y="40" style="fill:rgb(255,255,255);stroke:none"/>
<rect width="169" height="23" x="621" y="40" rx="0" ry="0" style="fill:none;stroke-width:1;stroke:rgb(192,192,192)"/>
<text x="624" y="55" fill="rgb(136,34,85)" font-family="Arial" font-size="12" font-weight="bold">Average Quality per read</text>
</svg>
